<?xml version="1.0" standalone="yes"?><svg xmlns="http://www.w3.org/2000/svg" style="max-height: 500px;zoom: 0.5;" version="1.1" id="svg3522" viewBox="0 -14 89.24383561643836 89.24383561643836" width="89.243835(null)" height="60.999996(null)"><defs id="defs3524"></defs><metadata id="metadata3527">image/svg+xml</metadata><g transform="translate(-43.28551,-410.43363)" id="layer1"><g transform="translate(-621.55272,-186.17892)" id="g4469" style="display:inline"><g id="g4459"><path style="fill:#f3d400;fill-opacity:1;stroke:none" id="path3054" d="M709.69141,596.61258 c0,0 -3.41031,2.69499 -6.88691,5.37174 c-3.57641,-0.11362 -10.59106,0.68718 -14.39187,2.06946 c-3.50133,-2.21819 -6.57787,-4.66728 -6.57787,-4.66728 c0,0 -2.62896,4.52282 -4.28224,7.17702 c-2.45187,1.30403 -4.91362,2.77074 -7.10764,4.7113 c-2.55188,-1.01333 -5.5101,-2.24876 -5.60665,-2.28959 c3.37945,6.81645 5.65131,13.64192 11.83134,17.74436 c9.83897,-15.53906 55.55981,-14.10685 65.60219,-0.0881 c6.49004,-3.38511 9.01412,-10.66815 11.56647,-17.39212 c-0.27986,0.0922 -3.75271,1.25487 -6.00396,2.11349 c-1.34414,-1.46336 -4.51234,-3.71327 -6.31301,-4.79936 c-1.70802,-3.12771 -4.19395,-7.35313 -4.19395,-7.35313 c0,0 -2.94437,2.1899 -6.35714,4.5792 c-4.61059,-0.85108 -10.1872,-1.88519 -14.87749,-1.62916 c-3.19286,-2.62436 -6.40127,-5.54786 -6.40127,-5.54786"></path><path d="M668.33241,623.47127 c0,0 4.78987,11.5978 8.1165,19.65678 c14.09625,18.59727 50.09234,19.89014 65.7848,0.36006 c3.71345,-8.36876 8.72334,-20.1298 8.72334,-20.1298 c-4.0259,5.96409 -10.5778,10.08114 -14.61301,12.29885 c-2.86735,1.57082 -9.48338,2.52031 -9.48338,2.52031 l-17.36961,-9.00108 l-17.46941,8.82104 c0,0 -6.52806,-1.04882 -9.4834,-2.4303 c-5.96472,-3.18408 -9.9764,-6.94592 -14.20583,-12.09586 " id="path3051" style="fill:#ffe953;fill-opacity:1;stroke:none"></path></g></g></g></svg>