<?xml version="1.0" encoding="UTF-8" standalone="no"?>
<!-- Created with Inkscape (http://www.inkscape.org/) -->

<svg
   version="1.1"
   id="svg1"
   width="500"
   height="500"
   viewBox="0 0 500 500"
   sodipodi:docname="L_even_bigger_gap.png"
   inkscape:export-filename="L_even_bigger_gap_black.svg"
   inkscape:export-xdpi="96"
   inkscape:export-ydpi="96"
   xmlns:inkscape="http://www.inkscape.org/namespaces/inkscape"
   xmlns:sodipodi="http://sodipodi.sourceforge.net/DTD/sodipodi-0.dtd"
   xmlns="http://www.w3.org/2000/svg"
   xmlns:svg="http://www.w3.org/2000/svg">
  <defs
     id="defs1" />
  <sodipodi:namedview
     id="namedview1"
     pagecolor="#ffffff"
     bordercolor="#000000"
     borderopacity="0.25"
     inkscape:showpageshadow="2"
     inkscape:pageopacity="0.0"
     inkscape:pagecheckerboard="0"
     inkscape:deskcolor="#d1d1d1">
    <inkscape:page
       x="0"
       y="0"
       width="500"
       height="500"
       id="page2"
       margin="0"
       bleed="0" />
  </sodipodi:namedview>
  <g
     inkscape:groupmode="layer"
     inkscape:label="Image"
     id="g1">
    <path
       style="fill:#ffffff"
       d="m 221,431 v -57 h 4.46146 c 4.41799,0 4.47164,0.0414 5.50768,4.25 7.3234,29.74927 16.21433,47.55706 32.01757,64.12852 11.55059,12.11208 21.92321,18.50485 37.70582,23.23858 12.59021,3.77622 35.25813,4.55218 46.87725,1.6047 15.6951,-3.98146 28.12576,-11.72739 36.01216,-22.4403 6.15214,-8.3571 8.56996,-15.42303 9.16432,-26.78219 1.18732,-22.69147 -9.21417,-40.37995 -35.49626,-60.36392 -3.4375,-2.61376 -6.25,-4.98919 -6.25,-5.27874 0,-0.89483 17.19905,-54.78656 17.86902,-55.99102 0.68435,-1.23032 22.31249,13.68242 35.18043,24.25714 17.69957,14.54528 28.80641,30.59603 35.20617,50.87723 2.97041,9.41342 3.2208,33.4571 0.45299,43.5 -8.73728,31.70298 -31.53299,55.23165 -64.70861,66.78921 -13.07858,4.55625 -21.48814,5.72214 -40.5,5.61487 -20.24565,-0.11423 -28.63774,-1.63778 -54.22308,-9.84397 -21.56831,-6.91778 -28.78185,-8.32462 -34.2634,-6.68231 -5.35123,1.60327 -10.57447,6.32226 -13.59459,12.28218 C 230.03613,487.86222 229.83869,488 225.48315,488 H 221 Z M 57,344.5 V 340 l 4.75,-0.007 c 7.567052,-0.0113 22.339549,-2.5957 27.352927,-4.78537 5.860092,-2.55949 11.508693,-7.51026 13.820223,-12.11288 C 107.57934,313.8235 107.5,316.33864 107.5,178 107.5,54.276459 107.40479,47.191491 105.66647,41.558775 100.86176,25.989912 89.113819,18.665331 66.75,17.295212 L 57,16.697878 V 12.348939 8 h 76 76 v 4.5 4.5 l -5.25,0.03489 c -7.53995,0.05011 -19.6847,2.4008 -25.36393,4.909351 -9.41173,4.157221 -14.2468,11.300521 -16.32698,24.12134 -1.43581,8.849368 -1.45011,263.986339 -0.0151,269.153369 1.67368,6.02636 5.07989,9.20957 11.87685,11.09929 5.26377,1.46346 12.01045,1.68176 51.97607,1.68176 49.47467,0 54.95183,-0.43591 67.09219,-5.33962 19.91544,-8.0442 36.81995,-25.64305 49.30227,-51.32731 2.45027,-5.04181 4.95854,-10.61127 5.57393,-12.37658 1.02661,-2.94491 1.38503,-3.15642 4.34554,-2.56432 1.77465,0.35493 3.55931,0.978 3.96591,1.3846 0.82406,0.82406 -3.1358,14.3002 -16.37383,55.72323 -4.92156,15.4 -9.42032,29.6875 -9.99725,31.75 L 328.75672,349 H 192.87836 57 Z M 265.71075,299.08773 C 247.06161,286.36196 237.84944,277.21938 230.1943,263.8396 222.1698,249.81423 218.04388,229.09468 219.89221,212.1045 224.03339,174.03818 248.6931,146.81734 289,135.81929 c 7.54583,-2.05894 10.68898,-2.31776 28,-2.30569 22.30367,0.0156 24.05956,0.36767 52.5,10.52778 17.87982,6.38742 23.92578,7.63326 28.96795,5.9692 4.10006,-1.35314 9.58284,-7.18711 12.08558,-12.85969 C 412.33522,133.1126 412.51531,133 417.19245,133 H 422 v 56.05479 56.05479 L 417.28781,244.80479 412.57563,244.5 411.4129,237 c -3.36811,-21.72547 -13.39413,-41.65774 -29.35611,-58.3615 -31.10074,-32.54606 -77.2699,-36.54713 -104.81593,-9.08346 -8.02585,8.00185 -11.38173,14.1925 -13.23559,24.4159 -2.82478,15.5777 3.95138,32.81203 17.71752,45.06237 4.40968,3.92413 25.64312,18.49419 34.625,23.75915 4.35198,2.55103 4.34218,2.71874 -0.64633,11.06191 -7.04754,11.78686 -19.76188,23.31257 -30.40535,27.56284 -10.33471,4.12697 -10.07912,4.15737 -19.58536,-2.32948 z"
       id="path1" />
  </g>
</svg>
